# AST/ASF file generated using VICON BodyLanguage
# -----------------------------------------------
:version 1.10
:name VICON
:units
  mass 1.0
  length 0.45
  angle deg
:documentation
   .ast/.asf automatically generated from VICON data using
   VICON BodyBuilder and BodyLanguage model FoxedUp or BRILLIANT.MOD
:root
   order TX TY TZ RX RY RZ
   axis XYZ
   position 0 0 0  
   orientation 0 0 0 
:bonedata
  begin
     id 1 
     name lhipjoint
     direction 0.630305 -0.712092 0.309259 
     length 2.29033 
     axis 0 0 0  XYZ
  end
  begin
     id 2 
     name lfemur
     direction 0.34202 -0.939693 0  
     length 6.43538  
     axis 0 0 20  XYZ
    dof rx ry rz
    limits (-160.0 20.0)
           (-70.0 70.0)
           (-60.0 70.0)
  end
  begin
     id 3 
     name ltibia
     direction 0.34202 -0.939693 0   
     length 7.43097   
     axis 0 0 20   XYZ
    dof rx
    limits (-10.0 170.0)
  end
  begin
     id 4 
     name lfoot
     direction 0.0334653 -0.0919451 0.995202   
     length 1.78438   
     axis -90 7.62852e-016 20   XYZ
    dof rx rz
    limits (-45.0 90.0)
           (-70.0 20.0)
  end
  begin
     id 5 
     name ltoes
     direction 1.53535e-011 -4.21933e-011 1   
     length 0.90832   
     axis -90 7.62852e-016 20   XYZ
    dof rx
    limits (-90.0 20.0)
  end
  begin
     id 6 
     name rhipjoint
     direction -0.682059 -0.67077 0.291312   
     length 2.43143  
     axis 0 0 0  XYZ 
  end
  begin
     id 7 
     name rfemur
     direction -0.34202 -0.939693 0   
     length 6.63488   
     axis 0 0 -20   XYZ
    dof rx ry rz
    limits (-160.0 20.0)
           (-70.0 70.0)
           (-70.0 60.0)
  end
  begin
     id 8 
     name rtibia
     direction -0.34202 -0.939693 0   
     length 6.86532   
     axis 0 0 -20   XYZ
    dof rx
    limits (-10.0 170.0)
 end
 begin
     id 9 
     name rfoot
     direction -0.105199 -0.289033 0.951521   
     length 1.77126  
     axis -90 -7.62852e-016 -20   XYZ
    dof rx rz
    limits (-45.0 90.0)
           (-20.0 70.0)
  end
  begin
     id 10 
     name rtoes
     direction -1.53551e-011 -4.21978e-011 1   
     length 0.889273   
     axis -90 -7.62852e-016 -20   XYZ
    dof rx
    limits (-90.0 20.0)
  end
  begin
     id 11 
     name lowerback
     direction -0.0514305 0.998089 0.034245   
     length 2.02077   
     axis 0 0 0   XYZ
    dof rx ry rz
    limits (-20.0 45.0)
           (-30.0 30.0)
           (-30.0 30.0)
  end
  begin
     id 12 
     name upperback
     direction 0.0203189 0.999449 -0.0262315   
     length 2.01413   
     axis 0 0 0   XYZ
    dof rx ry rz
    limits (-20.0 45.0)
           (-30.0 30.0)
           (-30.0 30.0)
  end
  begin
     id 13 
     name thorax
     direction 0.0452736 0.998142 -0.0407729   
     length 2.02986   
     axis 0 0 0   XYZ
    dof rx ry rz
    limits (-20.0 45.0)
           (-30.0 30.0)
           (-30.0 30.0)
  end
  begin
     id 14 
     name lowerneck
     direction -0.0180464 0.999645 -0.0195774   
     length 1.59034   
     axis 0 0 0   XYZ
    dof rx ry rz
    limits (-20.0 45.0)
           (-30.0 30.0)
           (-30.0 30.0)
  end
  begin
     id 15 
     name upperneck
     direction 0.0732272 0.979935 -0.18538   
     length 1.57486   
     axis 0 0 0   XYZ
    dof rx ry rz
    limits (-20.0 45.0)
           (-30.0 30.0)
           (-30.0 30.0)
  end
  begin
     id 16
     name head
     direction 0.0252963 0.997909 -0.059472  
     length 1.60334  
     axis 0 0 0   XYZ
    dof rx ry rz
    limits (-20.0 45.0)
           (-30.0 30.0)
           (-30.0 30.0)
  end
  begin
     id 17 
     name lclavicle
     direction 0.943819 0.330449 0.00315172  
     length 3.50322  
     axis 0 0 0   XYZ
    dof ry rz
    limits (-20.0 10.0)
           (0.0 20.0)
  end
  begin
     id 18 
     name lhumerus
     direction 1 -4.48949e-011 2.22502e-028   
     length 4.63208   
     axis 180 -30 -90   XYZ
    dof rx ry rz
    limits (-60.0 90.0)
           (-90.0 90.0)
           (-90.0 90.0)
  end
  begin
     id 19
     name lradius
     direction 1 -4.48967e-011 -4.10197e-027   
     length 3.41924   
     axis 180 -30 -90   XYZ
    dof rx
    limits (-10.0 170.0)
  end
  begin
     id 20
     name lwrist
     direction 1 -4.48987e-011 -1.24264e-027   
     length 1.70962   
     axis 2.50585e-015 90 90   XYZ
    dof ry
    limits (-180.0 0.0)
 end
  begin
     id 21 
     name lhand
     direction 1 -4.48983e-011 -2.48528e-027   
     length 0.62537   
     axis 1.58582e-015 90 90   XYZ
    dof rx rz
    limits (-90.0 90.0)
           (-45.0 45.0)
  end
  begin
     id 22 
     name lfingers
     direction 1 -4.48896e-011 -4.97056e-027   
     length 0.50419   
     axis 3.17164e-015 90 90   XYZ
    dof rx
    limits (0.0 90.0)
  end
  begin
     id 23
     name lthumb
     direction 0.707107 -6.34803e-011 0.707107   
     length 0.723919   
     axis -90 45 2.85299e-015   XYZ
    dof rx rz
    limits (-45.0 45.0)
           (-45.0 45.0)
  end
  begin
     id 24 
     name rclavicle
     direction -0.964499 0.260664 -0.0423695   
     length 3.91997  
     axis 0 0 0   XYZ 
    dof ry rz
    limits (-10.0 20.0)
           (-20.0 0.0)
  end
  begin
     id 25 
     name rhumerus
     direction -1 -4.48957e-011 -1.98656e-027  
     length 4.4064   
     axis 180 30 90   XYZ
    dof rx ry rz
    limits (-90.0 60.0)
           (-90.0 90.0)
           (-90.0 90.0)
  end
  begin
     id 26 
     name rradius
     direction -1 -4.48968e-011 1.96972e-027   
     length 3.44675   
     axis 180 30 90   XYZ
    dof rx
    limits (-10.0 170.0)
  end
  begin
     id 27 
     name rwrist
     direction -1 -4.48974e-011 -1.24264e-027   
     length 1.72338   
     axis 2.50585e-015 -90 -90   XYZ
    dof ry
    limits (-180.0 0.0)
  end
  begin
     id 28
     name rhand
     direction -1 -4.48901e-011 -2.48528e-027   
     length 0.513674   
     axis 1.58582e-015 -90 -90   XYZ
    dof rx rz
    limits (-90.0 90.0)
           (-45.0 45.0)
  end
  begin
     id 29
     name rfingers
     direction -1 -4.48946e-011 -4.97056e-027   
     length 0.414137   
     axis 3.17164e-015 -90 -90   XYZ
    dof rx
    limits (0.0 90.0)
  end
  begin
     id 30
     name rthumb
     direction -0.707107 -6.34859e-011 0.707107   
     length 0.59462   
     axis -90 -45 -2.85299e-015   XYZ
    dof rx rz
    limits (-45.0 45.0)
           (-45.0 45.0)
  end
:hierarchy
  begin
    root lhipjoint rhipjoint lowerback
    lhipjoint lfemur
    lfemur ltibia
    ltibia lfoot
    lfoot ltoes
    rhipjoint rfemur
    rfemur rtibia
    rtibia rfoot
    rfoot rtoes
    lowerback upperback
    upperback thorax
    thorax lowerneck lclavicle rclavicle
    lowerneck upperneck
    upperneck head
    lclavicle lhumerus
    lhumerus lradius
    lradius lwrist
    lwrist lhand lthumb
    lhand lfingers
    rclavicle rhumerus
    rhumerus rradius
    rradius rwrist
    rwrist rhand rthumb
    rhand rfingers
  end

#!OML:ASF E:\inclinewalkrobotboard\Project 1\Capture day 1\Session 1\subject1.ASF
:FULLY-SPECIFIED
:DEGREES
181
root 9.84447 12.7551 -8.78037 0.750866 3.05449 2.51505
lowerback 13.5072 1.39856 -4.81663
upperback 8.79291 1.35172 1.51267
thorax 1.57325 0.450131 4.13623
lowerneck -8.94325 1.1869 -0.697363
upperneck 22.4592 1.55446 1.03367
head 8.42723 0.783457 0.617244
rclavicle 4.96962e-015 1.19271e-015
rhumerus 49.0894 25.8686 -12.1397
rradius 57.6541
rwrist 5.09383
rhand -27.4081 -29.3806
rfingers 7.12502
rthumb -0.814212 -59.3588
lclavicle 4.96962e-015 1.19271e-015
lhumerus 56.9239 -25.5716 14.6943
lradius 50.0009
lwrist -23.9533
lhand -43.1651 -32.6481
lfingers 7.12502
lthumb -16.0173 -3.29023
rfemur -42.4882 -5.96307 14.2717
rtibia 0
rfoot 0 0
rtoes 0
lfemur -45.8118 -2.68583 -15.9942
ltibia 0
lfoot 0 0
ltoes 0
182
root 9.84748 12.757 -8.78244 0.755557 3.11627 2.64532
lowerback 13.4919 1.40201 -4.90206
upperback 8.82761 1.34894 1.45763
thorax 1.61925 0.444963 4.12759
lowerneck -8.72038 1.23262 -0.567242
upperneck 22.1556 1.61198 0.949637
head 8.28503 0.813561 0.568363
rclavicle -7.15625e-015 -1.59028e-015
rhumerus 48.9879 25.7628 -12.2721
rradius 57.5764
rwrist 5.27412
rhand -27.3178 -29.2771
rfingers 7.12502
rthumb -0.727069 -59.2556
lclavicle -7.15625e-015 -1.59028e-015
lhumerus 57.1235 -25.4981 14.5568
lradius 49.915
lwrist -23.8258
lhand -43.1221 -33.1326
lfingers 7.12502
lthumb -15.9759 -3.77139
rfemur -42.4776 -6.06788 14.102
rtibia 0
rfoot 0 0
rtoes 0
lfemur -45.7968 -2.80775 -16.1647
ltibia 0
lfoot 0 0
ltoes 0
183
root 9.84897 12.761 -8.79061 0.854301 3.10437 2.40696
lowerback 13.4734 1.37874 -4.70733
upperback 8.79747 1.33908 1.54583
thorax 1.59765 0.44667 4.11133
lowerneck -8.64307 1.27402 -0.551006
upperneck 21.9844 1.67834 0.891267
head 8.21337 0.84072 0.550445
rclavicle 2.04748e-014 1.43125e-014
rhumerus 48.9646 25.7216 -12.271
rradius 57.5094
rwrist 5.76875
rhand -27.2863 -29.18
rfingers 7.12502
rthumb -0.696625 -59.1586
lclavicle 2.04748e-014 1.43125e-014
lhumerus 57.1666 -25.4163 14.5236
lradius 49.793
lwrist -23.7479
lhand -43.0674 -33.5049
lfingers 7.12502
lthumb -15.9233 -4.13951
rfemur -42.6165 -6.0014 14.39
rtibia 0
rfoot 0 0
rtoes 0
lfemur -45.9909 -2.74957 -15.8828
ltibia 0
lfoot 0 0
ltoes 0
184
root 9.853 12.7618 -8.78377 0.807234 3.1266 2.47639
lowerback 13.4672 1.36418 -4.80143
upperback 8.8175 1.31084 1.55471
thorax 1.6247 0.427343 4.17787
lowerneck -8.76939 1.2784 -0.847279
upperneck 22.0711 1.67287 1.18113
head 8.25984 0.841869 0.698205
rclavicle 1.19271e-015 2.38542e-015
rhumerus 48.9551 25.741 -12.2445
rradius 57.4375
rwrist 6.40081
rhand -27.2975 -29.1681
rfingers 7.12502
rthumb -0.707415 -59.1467
lclavicle 1.19271e-015 2.38542e-015
lhumerus 56.9493 -25.3891 14.7401
lradius 49.8054
lwrist -24.0017
lhand -43.2575 -33.5327
lfingers 7.12502
lthumb -16.1063 -4.18198
rfemur -42.4778 -6.0565 14.2611
rtibia 0
rfoot 0 0
rtoes 0
lfemur -45.8405 -2.83214 -15.9941
ltibia 0
lfoot 0 0
ltoes 0
185
root 9.8513 12.7649 -8.78858 0.866858 3.05501 2.32499
lowerback 13.4921 1.38919 -4.71276
upperback 8.76645 1.35071 1.6064
thorax 1.55224 0.452352 4.17621
lowerneck -8.92193 1.24391 -1.29116
upperneck 22.2373 1.59927 1.65767
head 8.33559 0.817148 0.92803
rclavicle 1.47101e-014 -5.56597e-015
rhumerus 48.8811 25.7537 -12.3157
rradius 57.4037
rwrist 6.87469
rhand -27.2361 -29.266
rfingers 7.12502
rthumb -0.648161 -59.2447
lclavicle 1.47101e-014 -5.56597e-015
lhumerus 56.7917 -25.391 14.8909
lradius 49.849
lwrist -24.3428
lhand -43.5544 -33.5803
lfingers 7.12502
lthumb -16.3922 -4.25298
rfemur -42.5944 -5.91448 14.4614
rtibia 0
rfoot 0 0
rtoes 0
lfemur -45.96 -2.67667 -15.8021
ltibia 0
lfoot 0 0
ltoes 0
186
root 9.85169 12.768 -8.79077 0.927555 3.04246 2.44337
lowerback 13.4333 1.42598 -4.85063
upperback 8.77739 1.38763 1.5772
thorax 1.59077 0.464862 4.21999
lowerneck -9.0149 1.21363 -1.4039
upperneck 22.2436 1.55477 1.76578
head 8.35339 0.797786 0.979878
rclavicle -9.34288e-015 1.59028e-014
rhumerus 48.7691 25.6324 -12.4802
rradius 57.3274
rwrist 7.44923
rhand -26.9979 -29.4286
rfingers 7.12502
rthumb -0.418048 -59.408
lclavicle -9.34288e-015 1.59028e-014
lhumerus 56.8313 -25.3275 14.9414
lradius 49.8104
lwrist -24.609
lhand -43.8199 -33.8907
lfingers 7.12502
lthumb -16.6478 -4.58463
rfemur -42.6662 -5.90912 14.3274
rtibia 0
rfoot 0 0
rtoes 0
lfemur -46.0252 -2.65865 -15.9361
ltibia 0
lfoot 0 0
ltoes 0
187
root 9.8544 12.7707 -8.79097 0.94239 3.03982 2.62074
lowerback 13.4306 1.43814 -5.0421
upperback 8.77774 1.38371 1.5188
thorax 1.59277 0.456643 4.26748
lowerneck -9.00669 1.23696 -1.2689
upperneck 22.2289 1.59804 1.60779
head 8.34915 0.813718 0.90825
rclavicle 2.38542e-015 7.55382e-015
rhumerus 48.7619 25.5244 -12.6549
rradius 57.2024
rwrist 8.18649
rhand -26.7456 -29.4524
rfingers 7.12502
rthumb -0.174338 -59.432
lclavicle 2.38542e-015 7.55382e-015
lhumerus 56.7376 -25.2643 15.0676
lradius 49.7842
lwrist -24.8723
lhand -43.9454 -34.5926
lfingers 7.12502
lthumb -16.7686 -5.2967
rfemur -42.6615 -5.94887 14.1096
rtibia 0
rfoot 0 0
rtoes 0
lfemur -46.0014 -2.69883 -16.1604
ltibia 0
lfoot 0 0
ltoes 0
